<svg width="14" height="16" viewBox="0 0 14 16" fill="none" xmlns="http://www.w3.org/2000/svg">
<path d="M12.9532 9.57812L7.32817 15.2031C7.28585 15.2476 7.23495 15.2829 7.17854 15.3071C7.12214 15.3313 7.06141 15.3438 7.00005 15.3438C6.93868 15.3438 6.87796 15.3313 6.82156 15.3071C6.76515 15.2829 6.71425 15.2476 6.67192 15.2031L1.04692 9.57812C0.9599 9.4911 0.911011 9.37307 0.911011 9.25C0.911011 9.12693 0.9599 9.0089 1.04692 8.92188C1.13395 8.83485 1.25198 8.78596 1.37505 8.78596C1.49812 8.78596 1.61615 8.83485 1.70317 8.92188L6.5313 13.7422V1.125C6.5313 1.00068 6.58069 0.881451 6.66859 0.793544C6.7565 0.705636 6.87573 0.65625 7.00005 0.65625C7.12437 0.65625 7.2436 0.705636 7.33151 0.793544C7.41941 0.881451 7.4688 1.00068 7.4688 1.125V13.7422L12.2969 8.92188C12.3839 8.83485 12.502 8.78596 12.625 8.78596C12.7481 8.78596 12.8662 8.83485 12.9532 8.92188C13.0402 9.0089 13.0891 9.12693 13.0891 9.25C13.0891 9.37307 13.0402 9.4911 12.9532 9.57812Z" fill="#FFFEF6"/>
</svg>
